<?xml version="1.0" encoding="utf-8"?>
<!-- Generator: Adobe Illustrator 16.0.0, SVG Export Plug-In . SVG Version: 6.00 Build 0)  -->
<!DOCTYPE svg PUBLIC "-//W3C//DTD SVG 1.1//EN" "http://www.w3.org/Graphics/SVG/1.1/DTD/svg11.dtd">
<svg version="1.1" id="Layer_1" xmlns="http://www.w3.org/2000/svg" xmlns:xlink="http://www.w3.org/1999/xlink" x="0px" y="0px"
	 width="512px" height="512px" viewBox="0 0 512 512" enable-background="new 0 0 512 512" xml:space="preserve">
<g>
	<g>
		<rect x="74.694" y="11.921" fill-rule="evenodd" clip-rule="evenodd" fill="#E4EFF8" width="354.985" height="488.161"/>
	</g>
	<g>
		<path fill="#395A7C" d="M425.777,15.893H78.63v480.217h347.147V15.893z M74.694,8.018h0.214H429.68
			c2.161,0,3.936,1.775,3.936,3.903v0.21v487.951c0,2.127-1.774,3.898-3.936,3.898h-0.215H74.694c-2.165,0-3.903-1.771-3.903-3.898
			v-0.215V11.921C70.791,9.793,72.529,8.018,74.694,8.018z"/>
	</g>
	<g>
		<rect x="74.694" y="11.921" fill-rule="evenodd" clip-rule="evenodd" fill="#688794" width="354.985" height="66.605"/>
	</g>
	<g>
		<path fill="#395A7C" d="M425.777,15.893H78.63v58.66h347.147V15.893z M74.694,8.018h0.214H429.68c2.161,0,3.936,1.775,3.936,3.903
			v0.21v66.396c0,2.127-1.774,3.899-3.936,3.899h-0.215H74.694c-2.165,0-3.903-1.772-3.903-3.899v-0.215V11.921
			C70.791,9.793,72.529,8.018,74.694,8.018z"/>
	</g>
	<g>
		<path fill="#E9E9EB" d="M151.584,59.833h-6.382l-2.554-6.63h-11.703l-2.414,6.63h-6.239l11.418-29.187h6.171L151.584,59.833z
			 M140.732,48.273l-3.973-10.818l-3.974,10.818H140.732z"/>
		<path fill="#E9E9EB" d="M168.326,49.089v-4.896h12.696v11.633c-1.275,1.172-3.05,2.234-5.39,3.158
			c-2.342,0.886-4.684,1.345-7.094,1.345c-3.049,0-5.747-0.638-8.016-1.912c-2.271-1.279-3.973-3.12-5.105-5.499
			c-1.135-2.377-1.702-4.963-1.702-7.766c0-3.05,0.637-5.748,1.911-8.123c1.279-2.376,3.121-4.185,5.605-5.426
			c1.845-0.994,4.188-1.452,6.952-1.452c3.616,0,6.456,0.745,8.513,2.267c2.057,1.529,3.332,3.618,3.898,6.313l-5.815,1.102
			c-0.426-1.453-1.204-2.587-2.341-3.407c-1.135-0.815-2.555-1.241-4.255-1.241c-2.555,0-4.611,0.819-6.101,2.449
			c-1.561,1.631-2.343,4.044-2.343,7.272c0,3.472,0.782,6.063,2.343,7.801c1.56,1.738,3.546,2.591,6.03,2.591
			c1.274,0,2.481-0.248,3.757-0.744c1.209-0.465,2.273-1.069,3.195-1.739v-3.725H168.326z"/>
		<path fill="#E9E9EB" d="M186.485,59.833V30.646h12.411c3.125,0,5.394,0.25,6.812,0.778c1.42,0.535,2.554,1.452,3.403,2.803
			c0.781,1.349,1.209,2.872,1.209,4.61c0,2.164-0.639,3.974-1.918,5.426c-1.274,1.419-3.19,2.305-5.744,2.698
			c1.274,0.745,2.338,1.56,3.121,2.445c0.852,0.887,1.985,2.445,3.406,4.718l3.546,5.708h-7.023l-4.329-6.35
			c-1.489-2.267-2.553-3.688-3.049-4.287c-0.567-0.604-1.205-0.993-1.772-1.208c-0.637-0.249-1.63-0.355-2.98-0.355h-1.202v12.2
			H186.485z M192.375,42.988h4.324c2.839,0,4.61-0.106,5.322-0.355c0.707-0.248,1.275-0.638,1.63-1.242
			c0.427-0.565,0.639-1.312,0.639-2.197c0-0.959-0.286-1.775-0.784-2.376c-0.566-0.604-1.273-0.993-2.267-1.138
			c-0.427-0.07-1.847-0.104-4.255-0.104h-4.609V42.988z"/>
		<path fill="#E9E9EB" d="M215.923,59.833V30.646h21.632v4.93h-15.747v6.49h14.613v4.896h-14.613v7.941h16.318v4.93H215.923z"/>
		<path fill="#E9E9EB" d="M243.088,59.833V30.646h21.636v4.93h-15.747v6.49h14.684v4.896h-14.684v7.941h16.315v4.93H243.088z"/>
		<path fill="#E9E9EB" d="M270.188,59.833V30.646h8.865l5.318,19.895l5.18-19.895h8.867v29.187h-5.464V36.852l-5.814,22.981h-5.674
			l-5.749-22.981v22.981H270.188z"/>
		<path fill="#E9E9EB" d="M304.307,59.833V30.646h21.631v4.93h-15.746v6.49h14.613v4.896h-14.613v7.941h16.314v4.93H304.307z"/>
		<path fill="#E9E9EB" d="M331.541,59.833V30.646h5.75l11.914,19.507V30.646h5.463v29.187h-5.889l-11.774-19.046v19.046H331.541z"/>
		<path fill="#E9E9EB" d="M367.506,59.833V35.576h-8.654v-4.93h23.197v4.93h-8.653v24.257H367.506z"/>
	</g>
	<g>
		<path fill="#395A7C" d="M360.908,393.679c2.98-0.638,5.427-2.057,7.272-4.254c1.879-2.198,2.802-4.752,2.802-7.73
			c0-2.625-0.782-4.896-2.343-6.813c-1.56-1.913-4.146-3.403-7.731-4.396V393.679z M352.292,330.549
			c-2.342,0.783-4.15,2.201-5.499,4.043c-1.383,1.916-2.02,4.043-2.02,6.315c0,2.059,0.599,4.044,1.808,5.815
			c1.242,1.774,3.158,3.265,5.711,4.328V330.549z M101.968,148.394H259.58v13.125H101.968V148.394z M101.968,180.245h271.676v13.193
			H101.968V180.245z M101.968,207.977h271.676v13.194H101.968V207.977z M101.968,261.319h271.676v13.193H101.968V261.319z
			 M101.968,323.034h174.671v13.189H101.968V323.034z M101.968,354.88h174.671v13.194H101.968V354.88z M101.968,394.53h196.45
			v13.194h-196.45V394.53z M101.968,119.594H259.58v13.193H101.968V119.594z M352.292,392.76v-24.827
			c-7.734-2.202-13.37-5.533-16.955-10.003c-3.58-4.54-5.426-9.928-5.426-16.314c0-6.525,2.057-11.989,6.138-16.313
			c4.076-4.471,9.469-6.953,16.243-7.661v-5.818h8.616v5.818c6.313,0.778,11.35,2.909,15.073,6.456
			c3.725,3.547,6.138,8.299,7.164,14.258l-15.072,1.912c-0.923-4.682-3.298-7.802-7.165-9.503v23.123
			c9.54,2.554,16.034,5.959,19.473,10.003c3.478,4.114,5.178,9.291,5.178,15.747c0,7.164-2.164,13.123-6.489,18.016
			c-4.361,4.895-10.392,7.945-18.161,9.15v11.066h-8.616v-10.923c-6.812-0.852-12.345-3.335-16.599-7.589
			c-4.291-4.188-6.987-10.215-8.195-17.949l15.429-1.771c0.638,3.12,1.847,5.816,3.585,8.157
			C348.25,390.063,350.161,391.696,352.292,392.76z"/>
	</g>
	<g>
		<rect x="101.968" y="431.915" fill-rule="evenodd" clip-rule="evenodd" fill="#395A7C" width="271.676" height="13.194"/>
	</g>
	<g>
		<path fill="#272323" d="M194.891,463.621c0.637-2.482,1.101-4.967,1.313-7.305c-8.902,5.107-16.671,13.048-21.492,20.07
			c-2.235,3.338-3.832,6.387-4.577,8.941c-0.67,2.338-0.67,4.113,0.145,5.037c0.744,0.707,2.161,0.918,4.433,0.42
			C183.72,488.589,191.662,475.962,194.891,463.621 M130.449,471.707c-0.319,0.357-0.887,0.357-1.279,0
			c-0.352-0.284-0.352-0.922-0.033-1.278c0.104-0.07,29.611-30.712,54.865-33.335c5.604-0.569,9.365,1.419,11.633,5.035
			c1.668,2.553,2.446,6.03,2.555,9.788c0.037,0.427,0.037,0.853,0.037,1.273c5.566-2.764,11.488-4.394,17.377-4.183
			c14.933,0.566,15.818,7.875,12.521,15.535c2.692-1.629,5.213-1.916,6.951,0.639c0.989,1.418,2.306,1.204,3.722,0.211
			c1.737-1.205,3.654-3.473,5.355-5.529c2.057-2.482,3.831-4.61,5.284-4.61c1.242,0,1.986,1.134,1.986,4.039
			c0,3.477,1.03,4.399,2.376,4.399c0.89,0,1.986-0.356,3.017-0.638c1.097-0.285,2.128-0.567,3.014-0.567
			c1.704,0,2.838,0.778,2.838,3.402c0,6.245,44.76-6.809,44.867-6.809c0.497-0.211,0.989,0.07,1.134,0.568
			c0.142,0.496-0.145,0.992-0.604,1.133c-0.142,0.074-47.242,13.762-47.242,5.107c0-1.205-0.389-1.63-0.993-1.63
			c-0.637,0-1.561,0.284-2.484,0.566c-1.166,0.356-2.407,0.712-3.546,0.712c-2.376,0-4.217-1.278-4.217-6.245
			c0-1.561-0.037-2.198-0.146-2.198c-0.6,0-2.127,1.847-3.898,3.903c-1.774,2.128-3.762,4.54-5.712,5.885
			c-2.271,1.562-4.469,1.845-6.241-0.638c-1.56-2.268-4.221-1.063-7.022,1.49c-4.258,7.661-11.352,14.755-11.385,14.755
			c-0.356,0.354-0.923,0.354-1.279,0c-0.318-0.282-0.352-0.854-0.071-1.206c0.568-0.922,5.534-8.868,10.749-13.905
			c4.362-7.729,5.463-16.027-9.01-16.524c-5.922-0.216-11.882,1.49-17.448,4.399c-0.179,2.835-0.674,5.814-1.452,8.794
			c-3.373,12.908-11.812,26.174-21.529,28.445c-2.979,0.777-5.003,0.352-6.171-0.924c-1.349-1.419-1.456-3.832-0.604-6.737
			c0.815-2.698,2.517-6.03,4.859-9.436c5.106-7.521,13.512-15.958,23.12-21.211c0.038-0.778,0.076-1.486,0.038-2.197
			c-0.106-3.548-0.815-6.597-2.272-8.936c-1.878-2.979-5.107-4.614-9.928-4.117C159.601,441.416,130.556,471.637,130.449,471.707z"
			/>
	</g>
	<g>
		<polygon fill-rule="evenodd" clip-rule="evenodd" fill="#E3D2CC" points="319.838,415.671 305.121,420.848 270.788,388.22 
			318.493,400.847 		"/>
	</g>
	<g>
		<path d="M305.121,424.785c-0.993,0-1.953-0.39-2.698-1.102l-34.33-32.628c-1.312-1.241-1.598-3.191-0.743-4.751
			c0.884-1.561,2.73-2.236,4.432-1.88l47.706,12.626c1.592,0.423,2.765,1.81,2.903,3.441l1.351,14.823
			c0.178,1.771-0.924,3.477-2.592,4.043l-14.717,5.178C306.006,424.715,305.548,424.785,305.121,424.785z M284.585,395.915
			l21.493,20.431l9.576-3.373l-0.815-9.041L284.585,395.915z"/>
	</g>
	<g>
		<polygon fill-rule="evenodd" clip-rule="evenodd" fill="#D4D8DD" points="353.211,273.946 422.728,251.246 457.627,358.07 
			388.075,380.771 		"/>
	</g>
	<g>
		<path fill="#395A7C" d="M420.244,256.213l-62.1,20.217l32.451,99.374l62.103-20.212L420.244,256.213z M351.97,270.188l69.553-22.7
			c2.058-0.638,4.292,0.496,4.962,2.553l34.869,106.826c0.67,2.057-0.465,4.254-2.521,4.965l-69.548,22.696
			c-2.058,0.642-4.259-0.496-4.93-2.553l-34.863-106.824C348.816,273.094,349.95,270.896,351.97,270.188z"/>
	</g>
	<g>
		
			<rect x="70.032" y="259.823" transform="matrix(0.9506 0.3103 -0.3103 0.9506 103.3084 -17.4836)" fill-rule="evenodd" clip-rule="evenodd" fill="#D4D8DD" width="73.163" height="112.37"/>
	</g>
	<g>
		<path fill="#395A7C" d="M123.959,384.707c-0.426,0-0.819-0.07-1.207-0.211l-69.55-22.7c-2.056-0.675-3.19-2.872-2.52-4.929
			l34.862-106.826c0.323-0.992,1.031-1.809,1.953-2.305c0.957-0.459,2.058-0.567,2.98-0.211l69.549,22.695
			c2.057,0.675,3.19,2.873,2.517,4.931L127.68,381.976c-0.318,0.993-1.025,1.809-1.949,2.305
			C125.163,384.565,124.56,384.707,123.959,384.707z M59.336,355.555l62.104,20.287l32.449-99.379L91.79,256.179L59.336,355.555z"/>
	</g>
	<g>
		<path d="M242.841,287.247c-0.25,0-0.497-0.037-0.779-0.107c-3.514-0.707-6.456-1.171-8.621-1.49
			c-9.717-1.56-74.336-7.731-75.011-7.802c-2.128-0.215-3.721-2.131-3.509-4.291c0.177-2.024,1.915-3.548,3.901-3.548
			c0.104,0,0.249,0.034,0.389,0.034c2.661,0.248,65.506,6.278,74.904,7.769c2.803,0.426,5.853,0.923,9.507,1.668
			c2.128,0.426,3.477,2.483,3.05,4.61C246.316,285.936,244.686,287.247,242.841,287.247z"/>
	</g>
	<g>
		<path d="M165.346,403.223c-0.175,0-0.353-0.037-0.568-0.071c-26.35-3.794-41.492-25.112-42.135-26.036
			c-1.237-1.77-0.777-4.184,0.993-5.425c1.739-1.312,4.188-0.814,5.464,0.961c0.107,0.173,13.902,19.434,36.816,22.766
			c2.127,0.286,3.617,2.272,3.298,4.437C168.93,401.804,167.261,403.223,165.346,403.223z"/>
	</g>
	<g>
		<path fill-rule="evenodd" clip-rule="evenodd" fill="#F6DDD1" d="M202.092,418.225c7.094,3.051,11.773,9.361,10.392,14.538
			l0.745,0.497l0.211,0.146c1.949-0.497,5.674-1.067,8.616,0.708c4.081,2.411,9.366,8.016,6.208,13.475l3.017-2.409
			c0,0-1.348,1.135-3.228,2.694c5.284-4.325,16.669,0.427,13.156,5.604c1.42-1.42,2.413-2.553,2.413-2.553
			c5.069,0.923,12.163,0.707,16.454-5.533c0,0,12.094-0.923,17.735-13.55l8.476,5.677c0,0,5.499,5.816,15.465-2.697
			c9.999-8.438,9.999-15.251,8.299-17.308c-1.205-1.489-13.442-14.187-20.073-21.064c0,0,21.951,16.74,27.982,18.656
			c6.029,1.842,16.776,5.458,24.686,4.325c7.942-1.135,13.583-10.57,13.583-16.601c0-1.063-0.713-2.623-1.916-4.536
			c-5.641-9.079-21.848-25.253-21.848-25.253l-44.51-64.62c-10.107,2.058-24.613,5.106-29.545,6.738
			c-7.943,2.623-23.582,25.464-39.404,25.679c-15.851,0.142-17.341-15.676-17.341-15.676s27.484-24.827,41.176-41.854
			c-3.866-0.777-7.094-1.274-9.33-1.632c-9.398-1.488-74.688-7.729-74.688-7.729l-32.951,100.936c0,0,14.365,20.503,39.084,24.331
			c0.142,0,0.286,0.07,0.391,0.07c1.56-1.205,3.902-2.269,6.952-1.561c5.852,1.278,21.103,8.798,18.371,20.433
			C190.669,418.155,194.571,415.03,202.092,418.225z M213.229,433.331c0.919-0.778,1.453-1.274,1.453-1.274L213.229,433.331z"/>
	</g>
	<g>
		<path fill="#395A7C" d="M241.209,457.413c-0.885,0-1.771-0.319-2.482-0.923c-1.561-1.274-1.916-3.547-0.777-5.21l3.26,2.196
			l-3.228-2.268v0.032c-0.39,0-2.234-1.133-4.645-1.133c-1.17,0-2.131,0.281-2.769,0.777l0,0c-0.032,0-0.032,0-0.032,0.038
			c-1.598,1.278-4.081,1.133-5.5-0.566c-1.204-1.421-1.168-3.478-0.07-4.896c1.456-2.942-2.625-6.63-4.892-7.979
			c-1.49-0.852-4.329-0.675-5.679-0.281c-1.097,0.281-2.198,0.104-3.121-0.534c-0.032-0.07-0.07-0.07-0.177-0.107
			c-1.416-0.956-2.836-3.19-2.409-4.821c0.745-2.77-2.342-7.412-8.156-9.896c-3.866-1.668-7.451-0.604-7.521-0.534
			c-1.42,0.891-3.229,0.924-4.508,0c-1.312-0.923-2.019-2.482-1.663-4.043c0.529-2.198,0.141-4.292-1.209-6.381
			c-3.191-5.107-10.813-8.584-14.187-9.33c-1.523-0.459-2.623-0.068-3.688,0.854c-1.025,0.708-2.553,0.849-3.579,0.638
			c-25.891-4.011-40.893-25.006-41.535-25.93c-0.707-0.992-0.885-2.266-0.496-3.438l32.951-100.936
			c0.529-1.634,2.057-2.732,3.725-2.732c0.104,0,0.249,0.034,0.389,0.034c2.661,0.248,65.506,6.278,74.904,7.769
			c2.803,0.426,5.89,0.923,9.507,1.668c1.35,0.249,2.446,1.204,2.909,2.483c0.459,1.312,0.211,2.73-0.641,3.795
			c-11.953,14.895-33.834,35.215-40.004,40.855c0.849,3.439,3.688,10.285,12.908,10.285c8.69-0.104,18.052-8.795,25.572-15.781
			c5.069-4.718,9.113-8.442,12.801-9.684c3.939-1.312,14.046-3.617,30.008-6.846c1.523-0.39,3.121,0.355,4.007,1.597l44.511,64.621
			c0.211,0.14,16.137,16.065,21.954,25.427c1.739,2.731,2.517,4.788,2.517,6.597c0,7.379-6.635,19.013-16.951,20.465
			c-8.158,1.209-18.479-2.019-25.005-4.005l-1.383-0.428c-0.674-0.21-1.458-0.566-2.343-0.992
			c1.172,4.502-0.675,11.915-10.214,19.968c-4.291,3.65-8.583,5.533-12.696,5.533c-5,0-7.84-2.838-8.121-3.156l-4.221-2.765
			c-5.427,8.367-13.404,10.851-16.988,11.559c-3.439,4.08-8.336,6.245-14.328,6.245c-0.961,0-1.917-0.074-2.803-0.146
			c-0.317,0.355-0.712,0.746-1.133,1.134C243.232,457.023,242.203,457.413,241.209,457.413z M244.226,447.058
			c0.034,0,0.071,0,0.104,0c1.1,0.212,2.305,0.356,3.584,0.356c4.043,0,6.986-1.386,8.935-4.259
			c0.675-0.955,1.738-1.594,2.947-1.668c0.351-0.032,9.858-1.025,14.436-11.24c0.459-1.064,1.382-1.846,2.479-2.164
			c1.138-0.356,2.305-0.108,3.298,0.496l8.48,5.675c1.416,1.171,5.744,1.808,10.711-2.413c7.73-6.522,8.049-11.208,7.694-12.022
			c-1.027-1.242-14.611-15.354-19.754-20.639c-1.421-1.49-1.453-3.795-0.108-5.355c1.383-1.489,3.688-1.739,5.323-0.496
			c8.297,6.311,22.874,16.811,26.775,18.052l1.42,0.427c5.781,1.771,14.896,4.502,21.524,3.757
			c5.641-0.815,10.218-8.264,10.218-12.734l0,0c0,0-0.215-0.707-1.315-2.446c-5.318-8.616-21.136-24.4-21.277-24.579l-43.483-63.021
			c-17.625,3.617-24.186,5.317-26.565,6.101c-2.09,0.675-6.101,4.398-9.966,7.979c-8.476,7.909-19.045,17.733-30.642,17.913
			c-15.462,0-20.643-12.59-21.28-19.262c-0.108-1.204,0.355-2.446,1.279-3.261c0.247-0.212,22.306-20.218,36.423-36.283
			c-0.745-0.141-1.42-0.249-2.024-0.319c-8.475-1.348-58.729-6.239-71.854-7.483l-31.354,95.975
			c3.691,4.466,15.925,17.73,34.263,21.028c2.625-1.522,5.745-1.95,8.688-1.274c4.933,1.101,14.505,5.496,19.116,12.805
			c1.241,1.982,2.056,4.076,2.412,6.203c2.521-0.352,5.782,0.356,8.903,1.705c6.882,2.976,11.67,8.406,12.767,13.939
			c0.286,0.103,0.496,0.244,0.745,0.421c0.037,0,0.071,0,0.107,0c2.591,0,4.896,0.604,6.846,1.776
			c4.255,2.516,7.729,6.489,8.762,10.817c0.389,0.175,0.743,0.423,1.063,0.709C238.158,442.41,242.165,444.29,244.226,447.058z"/>
	</g>
	<g opacity="0.04">
		<g>
			<defs>
				<rect id="SVGID_27_" x="125.871" y="275.576" width="230.357" height="177.9"/>
			</defs>
			<clipPath id="SVGID_2_">
				<use xlink:href="#SVGID_27_"  overflow="visible"/>
			</clipPath>
			<g clip-path="url(#SVGID_2_)">
				<path fill-rule="evenodd" clip-rule="evenodd" fill="#272323" d="M213.191,433.26 M158.252,275.576
					c0,0-14.646,46.39-12.908,58.094c1.667,11.634-9.043,34.9-4.4,44.191c2.947,5.818,7.487,10.854,10.431,13.761
					c6.878,3.336,13.263,4.896,13.263,4.896s4.151-8.298,17.735-0.708c13.582,7.517,11.703,18.227,11.703,18.227
					s10.354-1.063,16.029,6.246c5.641,7.374,4.577,11.774,4.577,11.774l-1.453,1.274c0.919-0.778,1.453-1.274,1.453-1.274
					s8.228-2.414,13.052,3.05c4.789,5.462,2.943,9.646,2.943,9.646s8.832-1.205,12.022,2.624c1.029,1.278,1.7,2.553,2.164,3.758
					l-1.241-0.211c0,0-0.993,1.133-2.375,2.553c3.475-5.177-7.91-9.929-13.194-5.604c1.88-1.56,3.228-2.694,3.228-2.694
					l-3.017,2.409c3.158-5.459-2.127-11.063-6.208-13.475c-2.942-1.775-6.667-1.205-8.616-0.708l-0.211-0.074l-0.713-0.568
					c1.35-5.177-3.33-11.487-10.424-14.538c-7.521-3.194-11.423-0.069-11.423-0.069c2.731-11.635-12.52-19.154-18.371-20.503
					c-3.05-0.638-5.393,0.426-6.952,1.631c-0.104,0-0.249-0.07-0.391-0.07c-24.719-3.828-39.084-24.331-39.084-24.331l4.578-13.972
					v-0.071l0,0L158.252,275.576z M233.511,281.676c0,0-32.095,33.056-36.244,36.463c-4.147,3.405-6.775,20,4.539,28.303
					c11.315,8.228,24.119,0,44.866-10.218c15.392-7.587,26.317-15.177,36.283-18.513c0.178-0.07,7.979-1.063,11.633,5.393
					c3.651,6.522,9.999,17.448,13.017,25.319c3.013,7.948,9.965,22.49,9.965,22.49s5.286-7.38,9.61,1.49
					c4.329,8.864,21.492,22.84,23.375,26.242c0.886,1.561,2.835,5.532,3.968,10.78c1.103-2.268,1.706-4.61,1.706-6.597
					c0-1.063-0.713-2.623-1.916-4.536c-5.641-9.079-21.848-25.253-21.848-25.253l-44.51-64.62l-8.266,1.702l-0.319,0.069
					c-8.475,1.775-17.307,3.762-20.96,4.967c-7.943,2.623-23.582,25.464-39.404,25.604c-15.851,0.216-17.341-15.602-17.341-15.602
					s27.484-24.827,41.176-41.854C238.975,282.53,235.747,282.033,233.511,281.676z"/>
			</g>
			<g clip-path="url(#SVGID_2_)">
				<path fill="#131309" d="M214.006,487.028l23.976-35.748l3.266,2.196l-3.229-2.235c0,0.109-1.987-1.133-4.682-1.133
					c-1.17,0-2.131,0.281-2.769,0.777l0,0c-0.032,0-0.032,0-0.032,0.038l-0.075-0.07l-16.027,12.805l10.425-18.02
					c1.738-2.979-2.479-6.775-4.784-8.157c-1.49-0.852-4.329-0.675-5.679-0.281l-1.097,0.281l-2.521-1.1l-1.986-1.562l-0.07-3.051
					c0.712-2.802-2.375-7.444-8.189-9.928c-3.866-1.668-7.451-0.604-7.521-0.534l-8.266,5.464l2.095-9.507
					c0.529-2.198,0.141-4.255-1.171-6.349c-3.158-5.069-10.852-8.653-14.258-9.431c-0.96-0.286-2.521-0.038-3.655,0.922
					l-1.063,0.815l-2.517-0.178c-25.891-4.011-40.893-25.006-41.535-25.93l-1.096-1.592l32.984-101.15l7.445,2.375
					c-5.744,18.3-13.939,48.413-12.768,56.355c0.852,5.889-0.885,13.512-2.732,21.565c-1.841,8.227-3.967,17.519-2.019,21.454
					c2.624,5.145,6.737,9.722,9.221,12.238c3.757,1.771,7.342,3.013,9.577,3.688c3.547-3.262,11.666-4.859,21.032,0.318
					c10.213,5.679,12.979,13.09,13.615,17.804c4.188,0.394,10.818,1.954,15.288,7.698c3.014,3.936,4.398,7.234,5.036,9.755
					c4.821-0.038,9.469,1.522,12.449,4.892c2.66,3.016,3.758,5.852,4.113,8.157c5.069,0.145,8.725,1.56,10.922,4.188
					c1.209,1.523,2.165,3.121,2.802,4.858l2.482,6.452l-5.921-1.025c-0.319,0.317-0.638,0.708-1.027,1.063L214.006,487.028z
					 M130.233,374.141c1.598,1.911,4.756,5.459,9.296,9.15c-0.745-1.172-1.458-2.412-2.094-3.654
					c-3.192-6.456-0.957-16.281,1.419-26.706c1.026-4.47,2.057-9.043,2.516-12.913L130.233,374.141z M353.108,421.378l-2.413-11.133
					c-1.133-5.252-3.157-8.976-3.547-9.646c-0.567-0.922-3.688-3.973-6.207-6.423c-6.35-6.17-14.258-13.831-17.271-20.072
					c-0.922-1.846-1.56-2.164-1.598-2.164c-0.139,0.069-0.923,0.712-1.348,1.278l-3.866,5.211l-2.835-5.815
					c-0.286-0.604-7.062-14.791-10.073-22.803c-2.555-6.668-7.66-15.715-11.386-22.313l-1.419-2.481
					c-1.701-3.014-4.963-3.473-6.774-3.473c-5.778,1.771-11.985,5.248-19.188,9.253c-5.037,2.803-10.532,5.853-16.772,8.94
					l-6.739,3.368c-11.777,5.924-21.102,10.604-29.652,10.604c-4.609,0-8.723-1.346-12.519-4.114
					c-8.157-5.955-9.576-14.717-9.681-19.435c-0.178-6.419,1.81-12.485,4.962-15.041c2.91-2.407,23.09-22.942,35.928-36.173
					l1.419-1.453l1.986,0.318c2.803,0.426,5.89,0.923,9.507,1.668l6.312,1.274l-4.043,5.004
					c-11.953,14.895-33.834,35.215-40.004,40.855c0.849,3.406,3.688,10.214,12.801,10.214c8.831-0.069,18.196-8.761,25.68-15.71
					c5.107-4.718,9.113-8.476,12.801-9.684c4.151-1.383,13.939-3.511,21.387-5.069l11.138-2.306l1.49,2.126l44.511,64.621
					c0.211,0.14,16.137,16.065,21.954,25.427c1.739,2.731,2.517,4.788,2.517,6.597c0,2.553-0.745,5.534-2.094,8.303L353.108,421.378
					z M197.87,326.365c-0.178,1.063-0.249,2.305-0.216,3.654c0.076,3.261,1.069,9.291,6.457,13.264
					c4.222,3.014,8.901,3.158,14.824,1.42C204.148,344.629,198.826,333.14,197.87,326.365z M286.216,312.782l-5.744,1.171
					c-10.569,2.235-17.875,3.936-20.821,4.93c-2.09,0.675-6.063,4.398-9.928,7.979c-2.77,2.555-5.744,5.355-8.939,7.909l4.15-2.057
					c6.101-3.014,11.526-6.03,16.422-8.761c7.521-4.218,14.043-7.84,20.357-9.966c0.034-0.07,1.205-0.676,5.248-0.104
					L286.216,312.782z M234.898,285.86c-6.742,6.953-31.317,32.169-35.149,35.289c-0.178,0.179-0.426,0.534-0.707,1.103
					c0.6-0.568,22.447-20.358,36.423-36.283C235.287,285.936,235.108,285.898,234.898,285.86z"/>
			</g>
		</g>
	</g>
	<g>
		<path fill-rule="evenodd" clip-rule="evenodd" fill="#E1CBC1" d="M228.053,447.873c-1.631,1.35-3.654,2.91-5.5,4.256l5.711-4.541
			c3.158-5.459-2.127-11.063-6.208-13.475c-2.942-1.775-6.667-1.205-8.616-0.708c-0.211,0.07-0.356,0.14-0.533,0.14
			c-1.809,1.49-4.822,3.973-7.979,6.312c0.069-0.14,0.069-0.21,0.069-0.21l7.735-6.03c-0.354,0.14-0.57,0.212-0.57,0.212
			c0.106-0.353,0.248-0.708,0.322-1.065c1.382-5.177-3.298-11.487-10.392-14.538c-7.521-3.194-11.423-0.069-11.423-0.069
			c2.731-11.635-12.52-19.154-18.371-20.433c-3.05-0.708-5.393,0.355-6.952,1.561c-0.709,0.57-1.242,1.138-1.594,1.563l-0.496,0.639
			l-7.45,9.997c0,0-3.937,7.169,0.496,11.92c4.399,4.681,7.164,7.52,12.521,8.087c5.393,0.567,9.15-0.993,11.988-3.547
			c0,0-2.553,4.892,0.853,9.01c3.37,4.185,7.801,8.723,12.056,9.076c1.987,0.144,6.738-2.906,11.208-6.172
			c-0.427,0.994-2.408,6.03,0.463,9.862c3.229,4.185,9.253,5.604,12.66,4.893c1.03-0.281,2.694-1.205,4.503-2.482
			c0,0-1.771,2.979,1.241,6.244c3.018,3.33,7.909,2.057,11.208,0.281c1.882-0.994,4.399-3.332,6.207-5.178
			C244.722,448.3,233.337,443.548,228.053,447.873 M287.955,308.42l44.51,64.62c0,0,16.207,16.174,21.848,25.253l32.77-20.502
			L354.42,277.704c-16.529-0.708-34.76-2.483-42.669-6.668c-16.207-8.438-37.346-9.291-37.346-9.291s-16.386,0.426-28.267,17.237
			c-0.957,1.35-2.091,2.765-3.298,4.325c-13.691,17.026-41.176,41.854-41.176,41.854s1.49,15.817,17.341,15.676
			c15.822-0.215,31.461-23.056,39.404-25.679C263.342,313.526,277.848,310.478,287.955,308.42z"/>
	</g>
	<g opacity="0.15">
		<g>
			<defs>
				<rect id="SVGID_29_" x="318.493" y="273.521" width="68.589" height="106.97"/>
			</defs>
			<clipPath id="SVGID_4_">
				<use xlink:href="#SVGID_29_"  overflow="visible"/>
			</clipPath>
			<g clip-path="url(#SVGID_4_)">
				<path fill-rule="evenodd" clip-rule="evenodd" fill="#272323" d="M382.827,380.49l4.255-2.699L354.42,277.704
					c-12.806-0.567-26.672-1.771-35.927-4.184c0,0,28.867,7.801,36.99,27.169C360.731,313.312,374.104,353.675,382.827,380.49z"/>
			</g>
			<g clip-path="url(#SVGID_4_)">
				<path fill="#131309" d="M380.662,386.515l-1.561-4.82c-6.311-19.365-21.562-65.862-27.234-79.516
					c-7.31-17.381-34.119-24.794-34.404-24.864l2.024-7.59c7.585,1.986,19.716,3.369,35.11,4.08l2.694,0.104l34.474,105.55
					L380.662,386.515z M343.391,281.002c4.218,2.946,8.331,6.565,11.526,10.927l-3.368-10.43
					C348.672,281.358,345.979,281.18,343.391,281.002z"/>
			</g>
		</g>
	</g>
	<g>
		<polygon fill-rule="evenodd" clip-rule="evenodd" fill="#383E4F" points="376.408,258.485 455.285,232.733 494.797,353.887 
			415.952,379.565 		"/>
	</g>
	<g opacity="0.42">
		<path fill-rule="evenodd" clip-rule="evenodd" fill="#272323" d="M462.806,255.785l31.991,98.102l-78.845,25.679l-2.338-7.093
			l-25.539,8.298l-2.198-6.667l0,0l4.4-1.631l2.09-0.782l1.241-0.426l0,0l5.036-1.985l0.463-0.142l3.795-1.49l0.994-0.427
			l0.248-0.069l1.274-0.568l0.319-0.14l1.527-0.567c2.338-0.993,4.714-1.986,7.094-2.98l0.848-0.426l2.98-1.274l0.497-0.215
			l1.17-0.497l0.108-0.071l0.389-0.21l0.248-0.074l0.248-0.141l0.212-0.071l0.496-0.211l0.145-0.075l0.708-0.351l0.638-0.285
			l0.745-0.354l0.464-0.214c1.808-0.854,3.546-1.701,5.317-2.553l1.35-0.708l0.141-0.07l1.204-0.642l1.705-0.849l0.39-0.216
			l0.497-0.28l0.706-0.357c2.272-1.278,4.47-2.482,6.526-3.758l0.356-0.215l0.389-0.211l0.038-0.071l2.446-1.489l0.178-0.145
			l0.318-0.212h0.037l2.657-1.845l0.178-0.142l1.03-0.706l0.174-0.146l0.924-0.708l0.145-0.14l1.344-1.139v0.073
			c3.195-2.697,5.535-5.393,6.738-7.945C468.268,314.023,462.806,255.785,462.806,255.785z"/>
	</g>
	<g>
		<polygon fill-rule="evenodd" clip-rule="evenodd" fill="#383E4F" points="135.589,258.485 56.749,232.733 17.205,353.887 
			96.045,379.565 		"/>
	</g>
	<g opacity="0.42">
		<path fill-rule="evenodd" clip-rule="evenodd" fill="#272323" d="M49.196,255.785l-31.991,98.102l78.84,25.679l2.343-7.093
			l25.571,8.298l2.161-6.667l0,0l-4.396-1.631l-2.093-0.782l-1.205-0.426h-0.037l-5.036-1.985l-0.426-0.142l-3.829-1.49l-0.96-0.427
			l-0.248-0.069l-1.312-0.568l-0.319-0.14l-1.49-0.567c-2.376-0.993-4.75-1.986-7.127-2.98l-0.815-0.426l-2.979-1.274l-0.496-0.215
			l-1.171-0.497l-0.141-0.071l-0.394-0.21l-0.244-0.074l-0.215-0.141l-0.249-0.071l-0.496-0.211l-0.108-0.075l-0.707-0.351
			l-0.675-0.285l-0.745-0.354l-0.426-0.214c-1.809-0.854-3.58-1.701-5.318-2.553l-1.382-0.708l-0.109-0.07l-1.24-0.642l-1.668-0.849
			l-0.426-0.216l-0.497-0.28l-0.67-0.357c-2.271-1.278-4.508-2.482-6.564-3.758l-0.319-0.215l-0.425-0.211l-0.033-0.071l-2.45-1.489
			l-0.142-0.145l-0.318-0.212h-0.036l-2.696-1.845l-0.139-0.142l-1.031-0.706l-0.211-0.146l-0.924-0.708l-0.141-0.14l-1.349-1.139
			v0.073c-3.19-2.697-5.533-5.393-6.704-7.945C43.733,314.023,49.196,255.785,49.196,255.785z"/>
	</g>
	<g>
		<path fill="#395A7C" d="M184.713,434.469l0.175,0.281c1.527,1.846,3.229,3.688,4.967,5.106c1.452,1.28,2.941,2.128,4.183,2.272
			h0.07l1.813-0.992l0.211-0.146c1.738-0.919,3.865-2.409,5.922-3.897 M178.042,425.174l2.769,2.769l2.765,2.764 M176.412,434.75
			c-0.179-0.849-0.248-1.771-0.211-2.553c0.07-3.689,1.667-6.668,1.809-7.023 M152.296,409.853l0.033-0.07 M160.561,398.574
			l0.07-0.07 M186.944,416.876c0.426-1.421,1.597-2.414,3.017-2.694 M202.588,436.596L202.588,436.596l6.134-4.826h-0.033
			c0.388-1.344-0.179-3.12-1.388-4.75c-1.451-2.057-3.865-3.973-6.736-5.178c-5.248-2.272-7.094-0.922-7.094-0.922
			c-1.522,1.49-4.043,1.49-5.566,0c-0.923-0.994-1.312-2.344-1.063-3.547l0,0v-0.071l0.104-0.426
			c0.712-3.829-1.63-7.165-4.714-9.788l-0.145-0.142c-3.58-2.979-8.05-4.824-10.533-5.393l-0.211-0.068
			c-0.675-0.142-1.313-0.142-1.809,0c-0.604,0.139-1.171,0.425-1.635,0.777l-0.638,0.566l-0.529,0.571l-0.355,0.422l-7.235,9.792
			c-0.534,1.063-2.093,4.892,0,7.094c2.057,2.197,3.726,3.969,5.318,5.107c1.383,0.993,2.84,1.63,4.789,1.771l0,0
			c2.057,0.216,3.832,0.07,5.285-0.426c1.349-0.428,2.516-1.134,3.477-1.986h0.032l0,0l0.146-0.141
			c1.594-1.421,4.076-1.35,5.496,0.285c1.419,1.56,1.35,3.898-0.108,5.388l0,0c0,0-0.032,2.554,2.802,5.818
			c0.534,0.497,0.961,1.135,1.705,1.772l-4.61,0.782l-1.809-2.127l-3.05,2.479 M218.477,429.076h0.069 M218.546,429.076
			c1.776,0.07,3.688,0.566,5.497,1.63 M224.043,430.706c2.876,1.706,6.277,4.757,7.946,8.443 M231.989,439.149L231.989,439.149
			 M231.989,439.149c0.458,0.993,0.814,2.058,0.992,3.121c1.561,0,3.083,0.21,4.503,0.566l0.178,0.069
			c1.599,0.428,3.158,1.135,4.363,1.987l0.036,0.071c1.453,0.993,2.624,2.342,3.229,3.902c0.814,2.057,0.743,4.323-0.676,6.527
			c-0.141,0.28-0.355,0.565-0.637,0.847c-0.924,0.924-2.133,2.062-3.3,3.126c-1.277,1.063-2.627,2.057-3.832,2.764v-0.07
			c-2.305,1.274-5.318,2.344-8.227,2.269h-0.179h-0.036c-2.695-0.07-5.389-0.994-7.517-3.332c-0.853-0.923-1.49-1.775-1.953-2.554
			h-0.034l0,0l0,0c-2.481,0.497-5.889,0.281-9.079-0.922h-0.071l-0.106-0.072c-2.731-1.063-5.426-2.838-7.375-5.393
			c-1.068-1.419-1.705-2.904-2.023-4.395l-0.285,0.141l-0.283,0.212c-2.023,1.063-3.901,1.775-5.495,1.915h-0.815
			c-2.979-0.281-5.853-1.845-8.479-4.043c-2.198-1.771-4.219-4.043-5.993-6.101l-0.281-0.355c-1.208-1.489-1.883-3.049-2.201-4.681
			c-2.307,0.713-4.967,0.993-7.979,0.637c-3.439-0.352-6.063-1.415-8.476-3.189c-2.234-1.562-4.151-3.618-6.526-6.101
			c-6.063-6.452-1.632-15.321-1.135-16.244l0.39-0.638l7.412-10.002l0.463-0.639l0.352-0.425l0.745-0.778l0,0l0.286-0.286
			l0.849-0.778l0.145-0.145c1.241-0.919,2.873-1.842,4.893-2.338l0,0c1.597-0.355,3.405-0.426,5.354,0.07h0.145
			c3.298,0.777,9.15,3.261,13.795,7.094l0.069,0.069h0.074c3.721,3.12,6.7,7.164,7.483,11.915c2.408-0.141,5.388,0.216,8.865,1.635
			c4.221,1.842,7.805,4.682,10.073,7.871c1.452,2.058,2.446,4.33,2.802,6.527c0.566,0,1.204,0,1.808,0h0.038l0.141,0.07h0.033
			 M220.213,448.937l4.893-3.902c0.323-0.849,0.18-1.771-0.21-2.624c-0.957-2.057-3.051-3.897-4.821-4.961
			c-0.604-0.355-1.387-0.497-2.166-0.571h-0.069c-1.171-0.071-2.306,0.074-3.121,0.285l-3.372,2.693l-0.071,0.071l-3.082,2.343
			c-0.216,0.708-0.464,1.771-0.394,2.839c0,0.777,0.248,1.559,0.711,2.197c0.994,1.349,2.414,2.268,3.899,2.835l0.248,0.074
			c1.706,0.638,3.374,0.778,4.507,0.567l0,0l0.849-0.426C218.584,450.071,219.361,449.574,220.213,448.937z M230.498,450.924
			l-2.66,2.127l-0.212,0.215l-1.241,0.919c0.037,0.712,0.07,1.349,0.286,1.564c0.492,0.567,1.204,0.778,1.949,0.778
			c1.49,0,3.189-0.567,4.501-1.274h0.039v-0.074c0.637-0.353,1.523-0.994,2.411-1.772l0,0c0.709-0.637,1.453-1.277,2.128-1.985
			l-0.178-0.141c-0.533-0.356-1.208-0.643-1.986-0.854h-0.037c-1.771-0.497-3.795-0.497-4.962,0.497H230.498z M329.236,375.237
			l-43.021-62.492c-4.432,0.923-9.432,1.986-14.115,3.05c-5.46,1.209-10.178,2.344-12.483,3.05
			c-2.023,0.713-5.673,4.044-9.862,8.017c-8.476,7.802-19.115,17.733-30.712,17.875l0,0c-17.021,0.215-20.569-14.895-21.173-18.727
			l-0.107-0.568l-0.032-0.28h0.032c0-1.064,0.464-2.202,1.312-2.979c0.07,0,27.24-24.543,40.716-41.354l1.56-1.916l0.074-0.145
			l1.561-2.127l0,0c13.016-18.301,31.389-18.798,31.421-18.798c0.074,0,22.165,0.853,39.154,9.717
			c3.125,1.635,8.302,2.91,14.472,3.902c7.873,1.205,17.341,1.918,26.353,2.272h0.036h0.141c1.598,0.07,3.05,1.135,3.584,2.695
			l32.699,100.156c0.529,1.702-0.107,3.618-1.669,4.54l-32.768,20.498c-1.847,1.135-4.26,0.568-5.393-1.273
			c-5.427-8.654-21.281-24.476-21.315-24.547L329.236,375.237z M291.183,306.148l44.295,64.408
			c1.846,1.772,13.479,13.62,19.936,22.415l27.024-16.882l-30.889-94.624c-8.444-0.426-17.167-1.134-24.688-2.343
			c-6.953-1.063-12.979-2.554-16.919-4.61c-15.392-8.086-35.463-8.795-35.537-8.795c-0.032,0-14.361,0.356-25.071,15.462
			l-0.039,0.071l0,0l-1.559,2.131l-0.211,0.281l-1.599,2.057h-0.036l-0.07,0.141c-11.883,14.754-33.87,35.187-39.971,40.79
			c0.781,3.12,3.584,10.354,13.124,10.285c8.545-0.142,17.944-8.869,25.426-15.818c4.896-4.541,9.081-8.442,12.769-9.647
			c2.661-0.921,7.665-2.126,13.231-3.335c5.392-1.205,11.633-2.483,16.776-3.547C288.77,304.236,290.331,304.943,291.183,306.148z"
			/>
	</g>
	<g>
		<path fill="#395A7C" d="M452.77,237.629l-71.433,23.335l37.136,113.707l71.395-23.337L452.77,237.629z M375.204,254.723
			l78.839-25.747c2.059-0.641,4.293,0.497,4.967,2.555l39.512,121.151c0.67,1.987-0.465,4.255-2.521,4.892l-78.839,25.751
			c-2.024,0.637-4.259-0.497-4.935-2.483l-39.544-121.153C372.008,257.631,373.146,255.358,375.204,254.723z"/>
	</g>
	<g>
		<path fill="#395A7C" d="M57.953,228.976l78.845,25.747c2.057,0.636,3.19,2.908,2.516,4.965L99.77,380.841
			c-0.675,1.986-2.873,3.12-4.93,2.483l-78.844-25.751c-2.057-0.637-3.19-2.904-2.516-4.892L53.023,231.53
			C53.699,229.473,55.896,228.335,57.953,228.976 M130.659,260.964l-71.394-23.335L22.167,351.334l71.361,23.337L130.659,260.964z"
			/>
	</g>
</g>
</svg>
