<?xml version="1.0" standalone="no"?>
<!DOCTYPE svg PUBLIC "-//W3C//DTD SVG 20010904//EN"
 "http://www.w3.org/TR/2001/REC-SVG-20010904/DTD/svg10.dtd">
<svg version="1.0" xmlns="http://www.w3.org/2000/svg"
 width="50.000000pt" height="50.000000pt" viewBox="0 0 512.000000 512.000000"
 preserveAspectRatio="xMidYMid meet">

<g transform="translate(0.000000,512.000000) scale(0.100000,-0.100000)"
fill="#beae74" stroke="none">
<path d="M3282 5092 c-30 -11 -71 -36 -92 -57 -34 -33 -190 -281 -190 -302 0
-4 166 -174 370 -378 l370 -370 27 16 c268 154 311 191 339 285 21 74 14 148
-21 212 -36 67 -523 551 -585 582 -62 31 -150 36 -218 12z"/>
<path d="M2630 4564 c-47 -21 -147 -117 -686 -657 -504 -505 -636 -642 -655
-682 -32 -69 -33 -172 -1 -235 29 -56 649 -682 707 -713 57 -31 193 -31 250 0
23 12 315 297 687 670 645 647 646 648 663 707 11 39 15 76 12 108 -13 104
-28 123 -365 460 -356 356 -372 368 -492 368 -49 0 -79 -7 -120 -26z"/>
<path d="M3132 2817 l-292 -292 822 -821 c924 -922 865 -871 1003 -862 39 3
85 13 105 23 55 28 288 262 318 320 36 69 38 178 3 245 -16 31 -273 295 -839
863 -449 449 -819 817 -822 817 -3 0 -137 -132 -298 -293z"/>
<path d="M990 2783 c-139 -83 -182 -119 -212 -178 -30 -58 -35 -159 -12 -227
16 -48 45 -80 294 -329 242 -244 281 -278 324 -293 69 -22 160 -20 216 5 68
31 104 72 192 218 l80 134 -374 374 c-205 205 -375 373 -378 372 -3 0 -61 -34
-130 -76z"/>
<path d="M555 1039 c-56 -13 -127 -64 -163 -118 -38 -55 -52 -122 -52 -240 l0
-87 -82 -12 c-166 -24 -267 -143 -255 -302 7 -110 60 -191 157 -242 l45 -23
1115 0 1115 0 55 31 c101 57 159 169 146 281 -9 73 -27 113 -75 166 -49 53
-113 83 -197 92 l-61 7 -5 117 c-7 172 -50 251 -168 313 l-45 23 -745 2 c-439
1 -761 -3 -785 -8z"/>
</g>
</svg>
